<svg width="25" height="26" viewBox="0 0 25 26" fill="none" xmlns="http://www.w3.org/2000/svg">
<path d="M24.2188 13C24.2188 19.6878 18.7972 25.1094 12.1094 25.1094C5.42153 25.1094 0 19.6878 0 13C0 6.31216 5.42153 0.890625 12.1094 0.890625C18.7972 0.890625 24.2188 6.31216 24.2188 13ZM10.7087 19.4118L19.6931 10.4274C19.9981 10.1224 19.9981 9.62769 19.6931 9.32261L18.5882 8.21777C18.2832 7.91265 17.7885 7.91265 17.4833 8.21777L10.1562 15.5448L6.7354 12.124C6.43032 11.8189 5.93564 11.8189 5.63052 12.124L4.52568 13.2288C4.22061 13.5339 4.22061 14.0286 4.52568 14.3336L9.60381 19.4118C9.90894 19.7169 10.4036 19.7169 10.7087 19.4118Z" fill="black"/>
</svg>
