<svg width="24" height="26" viewBox="0 0 24 26" fill="none" xmlns="http://www.w3.org/2000/svg">
<path d="M8.99991 16.125L14.9999 9.875M3.98891 15.7708L2.46891 14.1875C1.84891 13.5417 1.84891 12.4792 2.46891 11.8333L3.98891 10.25C4.24891 9.97917 4.45891 9.44792 4.45891 9.07292V6.83333C4.45891 5.91667 5.17891 5.16667 6.05891 5.16667H8.20891C8.56891 5.16667 9.07891 4.94792 9.33891 4.67708L10.8589 3.09375C11.4789 2.44792 12.4989 2.44792 13.1189 3.09375L14.6389 4.67708C14.8989 4.94792 15.4089 5.16667 15.7689 5.16667H17.9189C18.7989 5.16667 19.5189 5.91667 19.5189 6.83333V9.07292C19.5189 9.44792 19.7289 9.97917 19.9889 10.25L21.5089 11.8333C22.1289 12.4792 22.1289 13.5417 21.5089 14.1875L19.9889 15.7708C19.7289 16.0417 19.5189 16.5729 19.5189 16.9479V19.1875C19.5189 20.1042 18.7989 20.8542 17.9189 20.8542H15.7689C15.4089 20.8542 14.8989 21.0729 14.6389 21.3438L13.1189 22.9271C12.4989 23.5729 11.4789 23.5729 10.8589 22.9271L9.33891 21.3438C9.07891 21.0729 8.56891 20.8542 8.20891 20.8542H6.05891C5.17891 20.8542 4.45891 20.1042 4.45891 19.1875V16.9479C4.45891 16.5625 4.24891 16.0313 3.98891 15.7708Z" stroke="black" stroke-width="1.5" stroke-linecap="round" stroke-linejoin="round"/>
<path d="M14.4941 15.6048H14.5031M9.49414 10.3965H9.50214" stroke="black" stroke-width="2" stroke-linecap="round" stroke-linejoin="round"/>
</svg>
